<svg viewBox="0 0 30 30" xmlns="http://www.w3.org/2000/svg" width="30.000000" height="30.000000" fill="none">
	<rect id="facebook-rect logo" width="30.000000" height="30.000000" x="0.000000" y="0.000000" fill="rgb(255,255,255)" fill-opacity="0" />
	<path id="Vector" d="M5.47782 0C2.44335 0 0 2.44335 0 5.47782L0 24.5222C0 27.5567 2.44335 30 5.47782 30L15.7997 30L15.7997 18.2719L12.6985 18.2719L12.6985 14.0494L15.7997 14.0494L15.7997 10.4419C15.7997 7.60764 17.6321 5.00532 21.8531 5.00532C23.5622 5.00532 24.826 5.16939 24.826 5.16939L24.7266 9.11253C24.7266 9.11253 23.4377 9.10035 22.0312 9.10035C20.5091 9.10035 20.265 9.80169 20.265 10.966L20.265 14.0494L24.8475 14.0494L24.6478 18.2719L20.265 18.2719L20.265 30.0001L24.5222 30.0001C27.5567 30.0001 30 27.5567 30 24.5222L30 5.47785C30 2.44338 27.5567 3e-05 24.5222 3e-05L5.47779 3e-05L5.47782 0Z" fill="rgb(0,0,0)" fill-rule="nonzero" />
</svg>
