<svg viewBox="0 0 168.001 35.1885" xmlns="http://www.w3.org/2000/svg" width="168.000854" height="35.188477" fill="none"
     customFrame="#000000">
	<g id="Group">
		<g id="Group">
			<g id="Group">
				<path id="Vector" d="M167.793 8.0791L60.3956 8.0791L60.3956 29.72L60.3956 29.9325L168.001 29.9325L168.001 8.0791L167.793 8.0791ZM163.385 27.2705L165.264 27.2705L165.264 27.5498L164.489 27.5498L164.489 29.7049L164.162 29.7049L164.162 27.5498L163.385 27.5498L163.385 27.2705Z" fill-rule="nonzero" />
				<path id="Vector" d="M164.161 29.7054L164.488 29.7054L164.488 27.5504L165.264 27.5504L165.264 27.271L163.384 27.271L163.384 27.5504L164.161 27.5504L164.161 29.7054Z" fill="rgb(251,245,3)" fill-rule="nonzero" />
			</g>
			<g id="Group">
				<path id="Vector" d="M167.793 8.0791L60.3956 8.0791L60.3956 29.72L60.3956 29.9325L168.001 29.9325L168.001 8.0791L167.793 8.0791ZM165.566 27.2705L166.018 27.2705L166.72 29.3493L167.399 27.2705L167.794 27.2705L167.794 29.7049L167.523 29.7049L167.523 27.7268L166.87 29.7049L166.546 29.7049L165.894 27.7268L165.894 29.7049L165.567 29.7049L165.566 27.2705Z" fill-rule="nonzero" />
				<path id="Vector" d="M165.893 27.7277L166.545 29.7054L166.87 29.7054L167.522 27.7277L167.522 29.7054L167.793 29.7054L167.793 27.271L167.398 27.271L166.719 29.3501L166.017 27.271L165.566 27.271L165.566 29.7054L165.893 29.7054L165.893 27.7277Z" fill="rgb(251,245,3)" fill-rule="nonzero" />
			</g>
			<path id="Vector" d="M112.027 23.8737L112.027 13.8088C112.027 11.7555 112.981 10.2852 115.014 10.2852L127.556 10.2852C127.633 10.2852 127.707 10.2086 127.707 10.1327L127.707 8.13014C127.707 8.11268 127.702 8.09555 127.695 8.0791L112.36 8.0791C109.035 8.50386 107.412 10.8325 107.412 13.8088L107.412 23.8734C107.412 25.9267 106.432 27.3971 104.426 27.3971L91.1799 27.3971C91.1048 27.3971 91.0293 27.4481 91.0293 27.5492L91.0293 29.5521C91.0293 29.6353 91.0801 29.6991 91.1395 29.72L106.178 29.72C110.097 29.6165 112.027 27.1012 112.027 23.8737Z" fill="rgb(251,245,3)" fill-rule="nonzero" />
			<path id="Vector" d="M60.499 29.72L64.9027 29.72C64.9622 29.6991 65.0129 29.6353 65.0129 29.5527L65.0129 23.1384C65.0129 21.0851 66.1667 19.6651 67.8477 19.6651L85.9868 19.6651C90.0762 19.6651 92.0585 17.13 92.0585 13.8088C92.0585 10.8325 90.4363 8.50386 87.1105 8.0791L60.4174 8.0791C60.4098 8.09589 60.3967 8.10899 60.3967 8.13014L60.3967 10.1327C60.3967 10.2341 60.4468 10.2852 60.5471 10.2852L84.4562 10.2852C86.4885 10.2852 87.4419 11.7555 87.4419 13.8088C87.4419 15.8624 86.4885 17.3328 84.4562 17.3328L65.5397 17.3328C62.6045 17.3328 60.3967 19.8431 60.3967 23.1384L60.3967 29.5531C60.3964 29.6353 60.4318 29.6991 60.499 29.72Z" fill="rgb(251,245,3)" fill-rule="nonzero" />
			<g id="Group">
				<path id="Vector" d="M131.52 25.0654L151.718 25.0654C151.792 25.0654 151.869 24.9892 151.869 24.9133L151.869 12.415C151.869 12.1363 151.618 12.1108 151.491 12.2122L131.396 24.7105C131.269 24.787 131.219 24.8626 131.246 24.9643C131.269 25.015 131.346 25.0654 131.52 25.0654Z" fill-rule="nonzero" />
				<path id="Vector" d="M127.634 27.3977L151.719 27.3977C151.793 27.3977 151.843 27.4481 151.843 27.4991L151.843 29.5527C151.843 29.6541 151.919 29.7049 151.993 29.7049L156.334 29.7049C156.411 29.7049 156.484 29.6541 156.484 29.5527L156.484 27.5498C156.484 27.4736 156.561 27.3977 156.635 27.3977L160.95 27.3977C161.05 27.3977 161.1 27.3215 161.1 27.246L161.1 25.2175C161.1 25.141 161.05 25.0654 160.95 25.0654L156.635 25.0654C156.561 25.0654 156.484 24.9889 156.484 24.9136L156.484 10.2852C156.484 9.09147 156.043 8.33127 155.301 8.0791L154.045 8.0791C153.654 8.18017 153.228 8.36115 152.772 8.63683L126.831 24.7357C125.827 25.3693 125.475 26.0788 125.727 26.6113C125.927 27.068 126.503 27.3977 127.634 27.3977ZM131.396 24.7102L151.491 12.2119C151.618 12.1104 151.87 12.136 151.87 12.4147L151.87 24.9136C151.87 24.9899 151.793 25.0654 151.719 25.0654L131.521 25.0654C131.347 25.0654 131.269 25.0154 131.246 24.964C131.219 24.8623 131.269 24.7864 131.396 24.7102Z" fill="rgb(251,245,3)" fill-rule="nonzero" />
			</g>
		</g>
		<g id="Group">
			<path id="Vector" d="M16.8273 0C18.7842 0.366669 20.7076 0.890482 22.6221 1.43646C23.7167 1.75612 24.8091 2.08686 25.8941 2.43909C27.5984 2.98473 29.2953 3.60256 30.839 4.52393C31.5304 4.946 32.1945 5.42281 32.7621 6.00437C33.3771 6.60844 33.8805 7.32499 34.2499 8.10466C34.923 9.51761 35.1535 11.0961 35.2217 12.6481C35.2537 13.6608 35.2517 14.6822 35.0633 15.6818C34.907 16.5505 34.6291 17.407 34.1667 18.1615C33.7585 18.8277 33.191 19.4042 32.5022 19.7756C31.8414 20.1336 31.0852 20.3041 30.3359 20.289C29.1995 20.3008 28.0968 19.9368 27.0769 19.4593C27.0582 16.0502 27.0739 12.6403 27.0689 9.23187C27.0619 8.61504 27.1036 7.99184 26.9797 7.38341C26.8925 6.91198 26.7015 6.43685 26.333 6.11686C26.0891 5.89558 25.7725 5.77067 25.4544 5.70318C25.1328 5.64173 24.7897 5.77907 24.5906 6.03862C24.2596 6.45432 24.1727 7.00633 24.1577 7.52377C24.155 16.6505 24.161 25.7776 24.155 34.9037C21.7124 34.1254 19.2696 33.3467 16.8273 32.5664C16.825 21.711 16.826 10.8557 16.8273 0Z" fill="rgb(251,245,3)" fill-rule="nonzero" />
			<path id="Vector" d="M5.84841 23.0961C9.03289 21.9628 12.214 20.8182 15.3998 19.689C15.4049 20.9454 15.3998 22.2026 15.4018 23.4604C15.3998 23.631 15.4105 23.8022 15.3895 23.9718C12.8714 24.869 10.3581 25.782 7.84268 26.6849C7.49393 26.8175 7.13617 26.9673 6.86726 27.2349C6.74199 27.3605 6.63977 27.5462 6.70825 27.7258C6.79443 27.9377 7.00956 28.0532 7.20799 28.1401C7.75983 28.3658 8.36312 28.398 8.95105 28.4249C9.60645 28.4145 10.2649 28.3651 10.9066 28.2227C11.3405 28.1368 11.7581 27.9901 12.1716 27.8339C13.2466 27.4427 14.3215 27.0492 15.3982 26.6621C15.4059 27.7251 15.3995 28.7889 15.4015 29.8533C15.3982 30.0658 15.4112 30.2797 15.3902 30.4913C14.068 30.73 12.7301 30.8918 11.3863 30.9133C8.68013 30.9748 5.96767 30.5537 3.39717 29.7035C2.55437 29.4581 1.71657 29.131 1.0124 28.5931C0.624905 28.2916 0.278163 27.9125 0.101786 27.4461C-0.0458633 27.0509 -0.0351738 26.5949 0.148887 26.2138C0.326266 25.8334 0.636262 25.5332 0.977659 25.2995C1.76735 24.7511 2.63888 24.3328 3.52143 23.9601C4.28273 23.6343 5.07175 23.3805 5.84841 23.0961Z" fill="rgb(251,245,3)" fill-rule="nonzero" />
			<path id="Vector" d="M31.4712 21.6646C32.1934 21.5807 32.9203 21.5609 33.6465 21.5347C36.0349 21.5437 38.4361 21.8422 40.721 22.5628C41.1693 22.6998 41.6035 22.8774 42.0501 23.0201C42.8465 23.3126 43.6435 23.6672 44.2809 24.2427C44.6637 24.5936 44.9941 25.0667 44.9984 25.6066C45.0212 26.0465 44.8234 26.4682 44.5395 26.7923C43.9996 27.4007 43.2861 27.8191 42.5699 28.1837C41.8073 28.5746 40.9875 28.8267 40.1878 29.1242C35.3067 30.8861 30.4249 32.6472 25.5448 34.4111C25.5438 33.0364 25.5462 31.6624 25.5438 30.2894C25.5512 30.2343 25.5214 30.1386 25.5983 30.1242C29.3122 28.7962 33.0252 27.4642 36.7388 26.1321C37.2408 25.9434 37.7817 25.8068 38.2076 25.4646C38.382 25.3269 38.5527 25.108 38.4671 24.8716C38.3779 24.6651 38.1648 24.551 37.9687 24.4653C37.4129 24.2441 36.8076 24.2014 36.2163 24.1846C35.2907 24.191 34.357 24.3055 33.4765 24.604C30.8311 25.5358 28.1908 26.479 25.5448 27.4078C25.5452 25.932 25.5438 24.4573 25.5455 22.9819C27.4593 22.3066 29.4582 21.8973 31.4712 21.6646Z" fill="rgb(251,245,3)" fill-rule="nonzero" />
			<g id="Group">
				<path id="Vector" d="M42.322 31.8303C42.8996 31.7581 43.5029 32.0183 43.8489 32.4887C44.2268 32.9746 44.2959 33.675 44.029 34.2297C43.7594 34.8053 43.1438 35.2085 42.5057 35.1877C41.9188 35.2008 41.3503 34.8573 41.0613 34.3483C40.8004 33.9003 40.769 33.3265 40.9711 32.8497C41.1986 32.299 41.7337 31.8974 42.322 31.8303ZM42.1964 32.1405C41.873 32.2144 41.5794 32.4115 41.3863 32.6821C41.1542 33.0008 41.0663 33.4225 41.1545 33.8083C41.2287 34.1666 41.4542 34.4869 41.7585 34.6847C42.2271 34.9943 42.8842 34.9772 43.3328 34.6374C43.7955 34.3087 44.0153 33.6781 43.856 33.1318C43.7577 32.7624 43.4952 32.4478 43.1645 32.2648C42.8705 32.1086 42.5198 32.0633 42.1964 32.1405Z" fill="rgb(251,245,3)" fill-rule="nonzero" />
				<path id="Vector" d="M41.7963 32.5357C42.0973 32.534 42.3993 32.5353 42.7006 32.5347C42.871 32.537 43.0587 32.577 43.1796 32.7086C43.3009 32.8463 43.3109 33.0471 43.2775 33.2197C43.2585 33.3338 43.1586 33.4013 43.0861 33.4809C43.1489 33.5373 43.2297 33.5897 43.2448 33.6813C43.2795 33.8563 43.2428 34.0396 43.2986 34.2109C43.3336 34.2716 43.3694 34.3328 43.372 34.4049C43.2471 34.4086 43.1225 34.4063 42.9976 34.4083C42.9134 34.2089 42.9765 33.9852 42.9238 33.7801C42.903 33.6965 42.8169 33.6444 42.735 33.6471C42.5312 33.6387 42.3265 33.6444 42.1237 33.6444C42.1204 33.8989 42.1307 34.1541 42.1174 34.4083C42.0115 34.4063 41.9046 34.4063 41.7983 34.4086C41.7927 33.7834 41.7963 33.1596 41.7963 32.5357ZM42.123 32.8325C42.1234 33.0051 42.1234 33.177 42.123 33.3499C42.3051 33.3513 42.4875 33.3526 42.6702 33.3506C42.7607 33.3499 42.866 33.3328 42.9248 33.2556C42.9869 33.1572 42.9855 33.0262 42.9298 32.9265C42.8827 32.8479 42.7835 32.8399 42.7019 32.8349C42.5089 32.8288 42.3158 32.8325 42.123 32.8325Z" fill="rgb(251,245,3)" fill-rule="nonzero" />
			</g>
		</g>
	</g>
</svg>
