<svg viewBox="0 0 32 32" xmlns="http://www.w3.org/2000/svg" width="32.000000" height="32.000000" fill="none">
	<rect id="wysiwyg" width="32.000000" height="32.000000" x="0.000000" y="0.000000" />
	<g id="Group">
		<path id="Vector" />
		<path id="Vector" d="M25.3333 4L6.66667 4C5.18667 4 4 5.2 4 6.66667L4 25.3333C4 26.8 5.18667 28 6.66667 28L25.3333 28C26.8 28 28 26.8 28 25.3333L28 6.66667C28 5.2 26.8133 4 25.3333 4ZM25.3333 25.3333L6.66667 25.3333L6.66667 9.33333L25.3333 9.33333L25.3333 25.3333ZM22.6667 16L9.33333 16L9.33333 13.3333L22.6667 13.3333L22.6667 16ZM17.3333 21.3333L9.33333 21.3333L9.33333 18.6667L17.3333 18.6667L17.3333 21.3333Z" fill="rgb(248,242,0)" fill-rule="nonzero" />
	</g>
</svg>
