<svg viewBox="0 0 178 35.188" xmlns="http://www.w3.org/2000/svg" xmlns:xlink="http://www.w3.org/1999/xlink" width="178.000000" height="35.187988" fill="none">
	<rect id="xbox-one-3 logo" width="178.000000" height="35.187801" x="0.000000" y="0.000000" fill="rgb(255,255,255)" fill-opacity="0" />
	<path id="Vector" d="M113.88 28.4246L107.086 19.2734L100.299 28.4246L97.5026 28.4246L105.671 17.3681L98.211 7.31787L101.007 7.31787L107.086 15.5145L113.164 7.31787L115.958 7.31787L108.504 17.3662L116.674 28.4246L113.88 28.4246ZM60.9359 28.4209L52.7584 17.3662L60.2183 7.31787L57.4222 7.31787L51.3418 15.5164L45.2669 7.31787L42.4783 7.31787L49.9344 17.3662L41.7588 28.4209L44.5586 28.4209L51.3455 19.2734L58.138 28.4209L60.9359 28.4209Z" fill="rgb(251,245,3)" fill-rule="nonzero" />
	<path id="Vector" d="M76.4837 18.1655C76.0624 17.8091 75.5931 17.5128 75.0894 17.285C75.8623 16.8774 76.5088 16.2685 76.9594 15.5238C77.41 14.7791 77.6476 13.9267 77.6469 13.0581C77.6469 11.7077 77.1454 7.31615 70.7332 7.31615L62.0971 7.31615L62.0971 16.4155L59.2209 16.4155C58.8481 16.8984 58 18.0582 57.6775 18.5336L62.0971 18.5336L62.0971 28.4211L70.735 28.4229C75.4137 28.4229 78.3198 26.0662 78.3198 22.2611C78.3198 20.5999 77.6879 19.1885 76.4837 18.1655ZM64.4849 9.51931L70.735 9.51931C72.4257 9.51931 75.259 9.93738 75.259 12.8731C75.259 15.0929 73.6094 16.4155 70.735 16.4155L64.4849 16.4155L64.4849 9.51931ZM70.7332 26.2216L64.4831 26.2216L64.4831 18.5392L70.7332 18.5392C73.1024 18.5392 75.9375 19.1885 75.9375 22.2148C75.9375 25.6999 72.6774 26.2216 70.7332 26.2216ZM89.5543 6.83149C83.5801 6.83149 79.4046 11.3655 79.4046 17.8584C79.4046 24.3606 83.5801 28.8909 89.5543 28.8909C95.5229 28.8909 99.6872 24.3606 99.6872 17.8584C99.6872 11.3655 95.5229 6.83149 89.5543 6.83149ZM89.5543 26.6581C85.0023 26.6581 81.813 23.038 81.813 17.8584C81.813 12.6789 85.0023 9.06055 89.5543 9.06055C94.0988 9.06055 97.2695 12.6789 97.2695 17.8584C97.2695 23.038 94.0988 26.6581 89.5543 26.6581ZM5.29636 5.05933L5.27959 5.07413L5.27959 5.07598C3.60686 6.71034 2.27902 8.65905 1.3736 10.8083C0.468192 12.9576 0.00335623 15.2644 0.00624204 17.5939C0.000945376 21.4449 1.27451 25.1904 3.62992 28.2509C3.65415 28.2805 3.69143 28.2971 3.72498 28.2805C3.75667 28.262 3.75854 28.2231 3.74549 28.1898C2.39407 24.0425 9.30217 13.9904 12.8718 9.77644C12.883 9.76164 12.8979 9.745 12.8979 9.72465C12.8979 9.7006 12.8811 9.6821 12.8643 9.6673C6.86028 3.73669 5.25722 5.09263 5.27959 5.07413L5.29636 5.05933ZM30.1737 5.05933L30.1905 5.07413L30.1905 5.07598C31.8631 6.71037 33.1907 8.65913 34.0958 10.8084C35.0009 12.9577 35.4653 15.2645 35.462 17.5939C35.4673 21.4449 34.1937 25.1904 31.8383 28.2509C31.8159 28.2805 31.7768 28.2971 31.7432 28.2805C31.7134 28.262 31.7115 28.2231 31.7227 28.1898C33.0742 24.0425 26.1716 13.983 22.6039 9.76719C22.5908 9.75239 22.5778 9.73575 22.5778 9.71725C22.5778 9.69135 22.5927 9.67285 22.6113 9.65805C28.6173 3.72744 30.2091 5.09263 30.1886 5.07413L30.1737 5.05933ZM17.735 0C21.3121 0 24.2554 0.973019 26.9694 2.57499C27.003 2.59164 27.0123 2.62863 26.9993 2.66193C26.9862 2.69338 26.9489 2.70078 26.9135 2.69153C23.4818 1.95529 18.2644 4.8984 17.7723 5.19252C17.7611 5.19992 17.75 5.20732 17.735 5.20732C17.7183 5.20732 17.7071 5.19992 17.6959 5.19252C16.3873 4.44703 11.5651 1.93864 8.52859 2.71003C8.49504 2.71743 8.45776 2.71188 8.44285 2.67858C8.43649 2.66295 8.436 2.64557 8.44147 2.62961C8.44695 2.61365 8.45802 2.60017 8.47267 2.59164C11.1867 0.97302 14.1673 0 17.735 0ZM17.735 14.1106C17.7555 14.1106 17.7779 14.1273 17.791 14.1384C23.096 18.1415 32.1757 28.0381 29.4039 30.837L29.4076 30.8333L29.4057 30.837L29.402 30.837C26.1752 33.6477 22.0267 35.1952 17.7332 35.1896C13.4391 35.1948 9.29026 33.6474 6.06248 30.837L6.05875 30.8333L6.06248 30.837C3.29626 28.0381 12.3741 18.1415 17.6735 14.1384C17.6884 14.1273 17.7127 14.1106 17.735 14.1106ZM157.947 7.318L157.947 24.6381L145.091 7.30505L142.983 7.30135L142.983 28.3896L145.35 28.3896L145.35 11.4524L157.944 28.4026L160.317 28.4063L160.317 7.318L157.947 7.318ZM130.693 6.82779C124.719 6.82779 120.542 11.3636 120.542 17.8547C120.542 24.3569 124.719 28.8946 130.693 28.8946C136.662 28.8946 140.826 24.3569 140.826 17.8547C140.826 11.3655 136.662 6.82779 130.693 6.82779ZM130.693 26.6581C126.141 26.6581 122.952 23.038 122.952 17.8547C122.952 12.677 126.141 9.05685 130.693 9.05685C135.238 9.05685 138.409 12.677 138.409 17.8547C138.409 23.038 135.238 26.6581 130.693 26.6581ZM165.355 26.3418L165.355 18.5392L177.056 18.5392L177.056 16.4747L165.355 16.4747L165.355 9.36578L177.85 9.36578L177.85 7.3032L162.975 7.3032L162.975 28.4063L177.997 28.4063L177.997 26.3418L165.355 26.3418Z" fill="rgb(251,245,3)" fill-rule="nonzero" />
</svg>
