<svg viewBox="0 0 32 32" xmlns="http://www.w3.org/2000/svg" width="32.000000" height="32.000000" fill="none">
	<rect id="collections" width="32.000000" height="32.000000" x="0.000000" y="0.000000" />
	<path id="Vector" d="M0 0L32 0L32 32L0 32L0 0Z" fill-rule="nonzero" />
	<path id="Vector" d="M29.3334 21.3334L29.3334 5.33342C29.3334 3.86675 28.1334 2.66675 26.6667 2.66675L10.6667 2.66675C9.20008 2.66675 8.00008 3.86675 8.00008 5.33342L8.00008 21.3334C8.00008 22.8001 9.20008 24.0001 10.6667 24.0001L26.6667 24.0001C28.1334 24.0001 29.3334 22.8001 29.3334 21.3334ZM14.6667 16.0001L17.3734 19.6134L21.3334 14.6667L26.6667 21.3334L10.6667 21.3334L14.6667 16.0001ZM2.66675 8.00008L2.66675 26.6667C2.66675 28.1334 3.86675 29.3334 5.33342 29.3334L24.0001 29.3334L24.0001 26.6667L5.33342 26.6667L5.33342 8.00008L2.66675 8.00008Z" fill="rgb(248,242,0)" fill-rule="nonzero" />
</svg>
