<svg viewBox="0 0 62 35.188" xmlns="http://www.w3.org/2000/svg" xmlns:xlink="http://www.w3.org/1999/xlink" width="62.000000" height="35.187988" fill="none" customFrame="#000000">
	<rect id="Frame 13" width="62.000000" height="35.187801" x="0.000000" y="0.000000" fill="rgb(255,255,255)" fill-opacity="0" />
	<path id="PC" d="M36.7054 32.5866Q39.3156 34.002 42.6934 34.002L47.567 34.002C49.8533 34.002 51.8689 33.5027 53.6138 32.5042C55.3587 31.4753 56.7125 30.038 57.6751 28.1921Q59.1192 25.378 59.1192 21.7014L52.9821 21.7014C52.9821 23.7288 52.4706 25.3628 51.4478 26.6035C50.455 27.8441 49.1614 28.4645 47.567 28.4645L42.6934 28.4645Q41.4031 28.4645 40.3786 27.9427Q39.4681 27.4791 38.7674 26.6035Q38.7443 26.5739 38.7216 26.5441Q37.2783 24.65 37.2783 21.656L37.2783 13.849C37.2783 11.8215 37.7897 10.1875 38.8125 8.94686C39.8354 7.67594 41.1892 7.04048 42.8739 7.04048L47.6572 7.04048C49.2216 7.04048 50.4851 7.60029 51.4478 8.71991C52.4105 9.80926 52.8918 11.2617 52.8918 13.0773L59.0289 13.0773Q59.0289 9.6277 57.5849 7.04048Q56.8446 5.64727 55.7757 4.58458Q54.8248 3.63921 53.6138 2.9554Q53.5949 2.9447 53.5759 2.93408Q51.0167 1.50293 47.6572 1.50293L42.8739 1.50293Q39.4078 1.50293 36.7294 2.95538Q36.6879 2.97791 36.6465 3.00079Q35.5607 3.61164 34.6701 4.43386Q33.3768 5.6278 32.4949 7.26743Q31.0509 9.99082 31.0509 13.5766L31.0509 21.9283Q31.0509 25.5141 32.4949 28.2829C33.4576 30.0985 34.8114 31.5056 36.5563 32.5042Q36.6305 32.5459 36.7054 32.5866ZM2.51587 1.86605L19.1673 1.86605Q21.92 1.86605 24.0409 2.9554Q25.2322 3.5418 26.1246 4.42895Q26.8208 5.12118 27.3351 5.99652Q27.4881 6.25101 27.6211 6.51554Q28.5083 8.27972 28.5083 10.4901L28.5083 14.7114C28.5083 16.4664 28.1022 18.0248 27.2899 19.3865Q26.9287 19.9787 26.4801 20.495Q25.4159 21.7201 23.8604 22.5184Q21.6943 23.6078 18.8063 23.6078L8.74323 23.6078L8.74323 33.6389L2.51587 33.6389L2.51587 1.86605ZM20.6181 17.6845Q20.9812 17.4712 21.2882 17.1624C21.9501 16.4664 22.281 15.5586 22.281 14.439L22.281 10.7624C22.281 9.70335 21.9801 8.87121 21.3785 8.26601C20.8069 7.63055 20.0397 7.31282 19.077 7.31282L8.74323 7.31282L8.74323 18.161L18.716 18.161Q19.8071 18.161 20.6181 17.6845Z" fill="rgb(251,245,3)" fill-rule="evenodd" />
</svg>
