<svg viewBox="0 0 58 50.2681" xmlns="http://www.w3.org/2000/svg" width="58.000000" height="50.268066" fill="none">
	<rect id="stadia logo" width="58.000000" height="50.268284" x="0.000000" y="0.000000" fill="rgb(255,255,255)" fill-opacity="0" />
	<g id="g13831">
		<g id="stadia-logo-mark">
			<path id="Fill-1" d="M8.91325 8.19807C8.69338 8.3603 8.5708 8.61767 8.56982 8.88254L8.56982 8.89306C8.5708 9.00471 8.59317 9.11787 8.63938 9.22552L12.5503 18.3649C12.7235 18.77 13.1705 18.9683 13.5757 18.8201C16.1363 17.8782 25.0035 14.8985 30.7419 16.5058C30.7419 16.5058 24.9855 16.8493 19.7801 21.0597C19.4868 21.2976 19.3891 21.7112 19.5394 22.0626C19.9621 23.0475 20.8104 25.0273 21.2905 26.1464L21.9647 27.7777C22.1252 28.1648 22.6379 28.2113 22.8641 27.8608C24.0787 25.9742 26.1266 25.0318 28.0938 24.2092C30.109 23.367 32.2119 22.7386 34.3571 22.3646C36.6428 21.966 38.9767 21.8594 41.2868 22.0702C41.6715 22.1052 42.0286 21.8619 42.1434 21.4823L43.9101 15.6581C44.0142 15.3136 43.8945 14.9371 43.6105 14.7253C41.6404 13.2532 33.8366 8.30873 20.1133 10.295C20.1133 10.295 31.8237 3.35624 46.6906 10.9785C47.141 11.2098 47.6848 10.967 47.8351 10.4733L49.3927 5.33703C49.417 5.25742 49.4287 5.17681 49.4301 5.0972L49.4301 5.07266C49.4258 4.78025 49.274 4.50286 49.0162 4.35215C47.1502 3.26311 40.8329 9.80694e-08 32.1428 9.80694e-08C25.4821 -0.000500608 17.4282 1.91621 8.91325 8.19807Z" fill="rgb(251,245,3)" fill-rule="evenodd" />
		</g>
		<g id="logo-stadia-wordmark">
			<path id="Shape" d="M16.4224 50.255L15.0117 50.255C14.9052 50.255 14.803 50.2113 14.7276 50.1335C14.6523 50.0556 14.61 49.95 14.61 49.8399L14.61 41.4089L11.1541 41.4089C10.9329 41.4078 10.7542 41.2223 10.7542 40.9938L10.7542 39.6878C10.7542 39.4586 10.934 39.2727 11.1559 39.2727L20.2807 39.2727C20.5025 39.2727 20.6824 39.4586 20.6824 39.6878L20.6824 40.9938C20.6824 41.223 20.5025 41.4089 20.2807 41.4089L16.8242 41.4089L16.8242 49.8399C16.8242 49.95 16.7819 50.0556 16.7065 50.1335C16.6312 50.2113 16.529 50.255 16.4224 50.255ZM9.82737 49.4579C10.3445 48.9235 10.556 48.2437 10.556 47.1126L10.556 46.8248C10.556 45.6924 10.3445 45.0145 9.82737 44.4789C9.27939 43.9121 8.55318 43.6811 7.3231 43.6811L2.8565 43.6811C2.67885 43.6811 2.50849 43.6082 2.38294 43.4783C2.25738 43.3485 2.18692 43.1724 2.18708 42.9888L2.18708 42.1005C2.18708 41.7185 2.48679 41.4089 2.8565 41.4089L9.251 41.4089C9.47289 41.4089 9.65277 41.223 9.65277 40.9938L9.65277 39.6878C9.65277 39.4586 9.47289 39.2727 9.251 39.2727L3.23289 39.2727C2.00221 39.2727 1.2766 39.5037 0.72802 40.0705C0.210854 40.6049 0 41.2847 0 42.4158L0 42.643C0 43.7773 0.210854 44.4546 0.72802 44.9889C1.2766 45.5557 2.00221 45.7867 3.23289 45.7867L7.71581 45.7867C8.08562 45.7867 8.3855 46.0963 8.38583 46.4784L8.38583 47.4266C8.38583 47.8089 8.08585 48.1189 7.71581 48.1189L0.981166 48.1189C0.759274 48.1189 0.579396 48.3047 0.579396 48.534L0.579396 49.8399C0.579396 49.95 0.621725 50.0556 0.697071 50.1335C0.772418 50.2113 0.87461 50.255 0.981166 50.255L7.32491 50.255C8.55379 50.255 9.27939 50.0241 9.82737 49.4579ZM41.7479 44.7336L41.7479 44.8091C41.7479 46.9253 41.4235 48.0103 40.5069 48.9572C39.6611 49.8312 38.402 50.2682 36.7563 50.2682L31.8891 50.2682C31.6672 50.2682 31.4873 50.0823 31.4873 49.853L31.4873 39.6878C31.4873 39.4586 31.6672 39.2727 31.8891 39.2727L36.7581 39.2727C38.4038 39.2727 39.6653 39.7147 40.5088 40.5836C41.4253 41.53 41.7479 42.618 41.7479 44.7336ZM39.5342 44.7336C39.5342 43.3253 39.4478 42.648 38.9131 42.0956C38.4757 41.6436 37.7707 41.4245 36.7563 41.4245L33.7016 41.4245L33.7016 48.1189L36.7581 48.1189C37.7725 48.1189 38.4781 47.8991 38.915 47.4472C39.4496 46.8954 39.536 46.2174 39.536 44.8091L39.5342 44.7336ZM45.3391 49.8399L45.3391 39.6878C45.3391 39.4586 45.1592 39.2727 44.9373 39.2727L43.5284 39.2727C43.3065 39.2727 43.1266 39.4586 43.1266 39.6878L43.1266 49.8399C43.1266 50.0692 43.3065 50.255 43.5284 50.255L44.9391 50.255C45.0457 50.255 45.1479 50.2113 45.2232 50.1335C45.2985 50.0556 45.3409 49.95 45.3409 49.8399L45.3391 49.8399ZM30.1902 50.255L28.6979 50.255C28.4885 50.2549 28.2984 50.1288 28.2109 49.9323L27.5246 48.3967L21.9862 48.3967L21.2987 49.9329C21.2116 50.128 21.0232 50.2533 20.8153 50.2544L19.3158 50.2544C19.1776 50.2545 19.0491 50.1813 18.9754 50.0605C18.9018 49.9396 18.8935 49.7882 18.9533 49.6595L23.4846 39.9113C23.7213 39.4103 24.2137 39.0926 24.7533 39.0926C25.2929 39.0926 25.7853 39.4103 26.0221 39.9113L30.5533 49.6583C30.6139 49.7869 30.6061 49.9388 30.5327 50.0601C30.4592 50.1814 30.3305 50.2551 30.192 50.255L30.1902 50.255ZM22.8907 46.3635L26.6226 46.3635L24.7606 41.9757L22.8907 46.3635ZM57.5976 50.255L56.1023 50.255C55.8929 50.255 55.7027 50.129 55.6153 49.9323L54.9302 48.3967L49.3918 48.3967L48.7049 49.9329C48.6175 50.1277 48.4293 50.2528 48.2215 50.2544L46.722 50.2544C46.5838 50.2545 46.4553 50.1813 46.3816 50.0605C46.308 49.9396 46.2997 49.7882 46.3595 49.6595L50.8907 39.9113C51.1272 39.4099 51.6197 39.0918 52.1595 39.0918C52.6993 39.0918 53.1918 39.4099 53.4282 39.9113L57.9595 49.6583C58.0201 49.787 58.0123 49.939 57.9387 50.0603C57.8651 50.1817 57.7362 50.2553 57.5976 50.255L57.5976 50.255ZM50.2962 46.3635L54.0282 46.3635L52.1667 41.9757L50.2962 46.3635Z" fill="rgb(251,245,3)" fill-rule="nonzero" />
		</g>
	</g>
</svg>
