<svg viewBox="0 0 172.05 74" xmlns="http://www.w3.org/2000/svg" width="172.049988" height="74.000000" fill="none">
	<rect id="CD_Projekt_logo 1" width="172.050003" height="74.000000" x="0.000000" y="0.000000" fill="rgb(255,255,255)" fill-opacity="0" />
	<g id="g10">
		<g id="g60">
			<g id="g62">
				<g id="g68">
					<path id="path70" d="M12.5312 8.06436C13.6019 9.21604 14.8605 10.5166 15.612 11.1281C15.4007 11.1463 15.0672 11.1873 14.7051 11.2419C13.9218 10.5283 12.9226 9.48576 12.0274 8.52971C10.893 7.30589 9.95814 6.23675 9.95814 6.23155C9.94384 6.22245 9.93864 6.2036 9.92369 6.19061C9.18258 5.98653 7.92465 5.64076 7.08798 5.41264C5.8476 5.06882 4.73464 5.15331 4.73464 4.3422C4.73464 4.3422 3.4507 3.65392 3.75104 2.62768C3.75104 2.62768 6.32672 4.68471 8.53054 5.03308C8.53054 5.03308 7.18419 4.15762 7.30641 2.97084C7.30641 2.97084 9.12082 5.68496 11.2395 4.03933C11.2395 4.03933 10.2955 5.32165 10.6888 6.02747C11.0275 6.41158 11.729 7.2006 12.5312 8.06436ZM8.45123 40.1119C8.34006 40.0625 8.22434 40.0443 8.10537 40.0443C7.72962 40.0443 7.37727 40.2718 7.2245 40.6442C7.21084 40.6747 7.19329 40.7111 7.18679 40.7495L6.90725 40.6565C7.14258 39.9715 7.84989 39.5965 8.48828 39.8175C8.64885 39.8753 8.79252 39.9604 8.90369 40.0696C9.25474 40.3998 9.39711 40.9366 9.22224 41.4468L8.58124 41.2278C8.62155 41.1336 8.64885 41.0315 8.64885 40.9223C8.64885 40.8275 8.6326 40.7417 8.5949 40.6598L8.88744 40.4817C8.83673 40.405 8.77432 40.3283 8.69956 40.2646C8.6326 40.2009 8.54679 40.1502 8.45123 40.1119ZM34.4075 42.1904L21.7392 39.1012L21.7392 39.1149L21.7431 39.1012L46.4876 49.8056L26.0948 47.3086L37.0105 55.28L25.3134 50.7142L27.0797 54.2583L18.7123 48.2328L18.6415 48.3602L30.5044 74L11.2135 51.1731L11.0932 63.6186L4.01498 46.9836L3.64703 51.8874L0.159922 39.1266L0.166423 39.1305L0.166423 39.1266C0.166423 39.1266 0.636441 39.4743 1.26833 39.6647C1.31904 39.6784 1.3704 39.6914 1.42111 39.7057C1.42761 39.7057 1.43411 39.7109 1.44126 39.7109C1.49262 39.7219 1.54332 39.7343 1.59403 39.7421C1.60053 39.7421 1.60833 39.7479 1.61808 39.7479C1.67009 39.757 1.72015 39.7642 1.77866 39.7674L1.77866 39.7733C1.83326 39.7778 1.88657 39.7804 1.93793 39.785L1.97109 39.785C2.02244 39.7895 2.0777 39.7895 2.13556 39.785C2.13881 39.785 2.14206 39.785 2.15441 39.7804C2.20252 39.7804 2.24998 39.7778 2.30133 39.7674C2.31108 39.7642 2.31759 39.7642 2.32864 39.7642C2.38389 39.757 2.43395 39.7479 2.48531 39.7343C2.49896 39.7343 2.51261 39.7297 2.51911 39.7265C2.57242 39.7128 2.62703 39.6985 2.68554 39.6784C3.87846 39.2468 4.89326 39.6784 4.89326 39.6784C4.89326 39.6784 6.01662 38.9576 6.01662 38.3525L6.01402 38.3525L6.01402 38.3499C6.01402 38.3499 4.53571 38.2635 4.53571 38.918C4.53571 38.918 2.64523 39.5893 0 38.6092L5.57846 36.211C5.57521 36.237 5.28072 37.2749 5.60316 37.6363C5.70523 37.7611 5.88465 37.8046 6.16419 37.7097C6.26626 37.6733 6.34037 37.6824 6.38653 37.7273C6.82014 38.1744 4.71643 42.0584 4.71643 42.0584C4.71643 42.0584 2.82726 42.2417 1.19292 40.5324C1.08436 40.4193 0.97124 40.2978 0.866575 40.1645L0.866575 40.1704L0.866575 40.1645C1.03365 40.4557 1.56348 41.3 2.4476 42.0311C2.97743 42.4757 3.64053 42.8741 4.43039 43.099C4.64687 43.6183 4.37188 43.2803 4.8185 43.5533C4.82175 43.5533 4.82175 43.5578 4.82175 43.5578C5.03173 44.9272 5.80729 48.4544 8.48243 51.4714C8.66185 51.6716 8.84648 51.8737 9.04281 52.0654C9.04281 52.0654 8.35761 50.7766 8.35761 49.8804C8.37711 49.9031 9.05386 50.9183 9.98935 51.8471L9.98935 51.851C9.98935 51.851 9.9783 51.836 9.96464 51.8107C9.79107 51.4389 8.51558 48.717 8.64885 47.9221C8.65275 47.915 8.65535 47.9104 8.65535 47.9026L11.2336 50.2645C11.2336 50.2645 11.2265 50.2599 11.2226 50.2573C11.1478 50.1553 8.80163 46.9836 8.57019 45.8963L8.57019 45.8891L12.474 48.6767L12.4701 48.6721C12.4571 48.6494 11.9786 47.9819 11.7771 47.616C11.6341 47.3541 11.6133 47.2657 11.6133 47.2384L11.6198 47.2176L13.7215 48.1184C13.7215 48.1184 13.6305 48.0092 13.4836 47.85L12.7015 47.0551L12.5085 46.851L11.0867 45.4147L11.0601 45.3815L9.9783 44.2825L9.28465 43.576C9.28465 43.576 8.71711 42.9852 8.64885 42.6791C8.58124 42.3782 8.90109 42.1923 8.90109 42.1923L8.89719 42.1923C9.18648 42.0311 9.41987 41.7816 9.55704 41.4832C9.63245 41.3026 9.67535 41.1063 9.67535 40.895C9.67535 40.4817 9.50568 40.1067 9.22224 39.8357C8.94465 39.5627 8.55329 39.3924 8.12228 39.3924C7.72962 39.3924 7.38117 39.5347 7.10878 39.7622C7.15624 39.6985 7.92465 38.7327 9.33535 39.4834L11.0789 40.754L11.1543 40.8132L12.9564 42.1306C13.3815 41.6288 13.7833 41.0244 14.1467 40.3387C13.076 39.3216 11.2499 37.557 9.42637 35.6273C8.34006 34.4802 7.2557 33.2674 6.32997 32.1223L6.98006 35.1763L7.03402 35.4285C7.03402 35.4285 7.03142 35.4285 7.03142 35.4239C7.02427 35.4207 7.02037 35.4207 7.01517 35.4161C7.01517 35.4135 7.00672 35.409 7.00672 35.409C7.00021 35.4057 6.99306 35.4057 6.98916 35.3953C6.98591 35.3953 6.98006 35.3927 6.98006 35.3856C6.97291 35.3817 6.96186 35.3771 6.95601 35.3726C6.95211 35.37 6.94951 35.3602 6.93846 35.3583C6.93195 35.3544 6.9222 35.3446 6.9131 35.342C6.90725 35.3329 6.9014 35.329 6.891 35.3219C6.88385 35.3147 6.87865 35.3069 6.86369 35.3037C6.85394 35.2933 6.84744 35.2835 6.83639 35.2783C6.82729 35.2705 6.81624 35.2582 6.80519 35.2562C6.79673 35.2426 6.78568 35.2309 6.77658 35.227C6.76163 35.2172 6.75188 35.2049 6.73823 35.1958C6.72782 35.1886 6.71807 35.1763 6.70897 35.1659C6.69467 35.1542 6.67712 35.1451 6.66737 35.1288C6.64981 35.1223 6.64331 35.1106 6.62641 35.1035C6.61601 35.0866 6.59911 35.0743 6.58155 35.0593C6.57245 35.0483 6.55425 35.0359 6.5445 35.0229C6.52695 35.0086 6.50679 34.9924 6.49314 34.9742C6.47949 34.9618 6.47039 34.9501 6.45219 34.941C6.43918 34.9209 6.41968 34.9014 6.39498 34.8832C6.38132 34.8721 6.37092 34.863 6.36117 34.85C6.35012 34.839 6.33712 34.8273 6.32282 34.8162C6.32282 34.8117 6.32022 34.8117 6.32022 34.8117C6.30071 34.7935 6.27926 34.7701 6.25911 34.748C6.24155 34.7369 6.2279 34.7187 6.21555 34.7025C6.19085 34.6843 6.1733 34.6635 6.15314 34.644C6.13624 34.6278 6.11869 34.6076 6.10243 34.5933C6.08878 34.5725 6.07123 34.5569 6.06213 34.5439C6.05498 34.5387 6.04588 34.529 6.03807 34.5212C6.03807 34.5186 6.03157 34.5134 6.02377 34.5062C6.01142 34.4932 6.00037 34.4822 5.98672 34.4679C5.96981 34.4477 5.95291 34.4315 5.93601 34.4113C5.93211 34.4042 5.92951 34.3983 5.92236 34.397C5.91521 34.3892 5.90936 34.386 5.90221 34.3782C5.8931 34.3619 5.8814 34.3502 5.86775 34.3385C5.8476 34.3093 5.82744 34.2872 5.80014 34.2638C5.78259 34.2384 5.76179 34.2202 5.74553 34.1942C5.72538 34.1689 5.69808 34.1416 5.67727 34.1182C5.65712 34.0929 5.63827 34.0727 5.61876 34.0474C5.59276 34.0188 5.57261 33.9889 5.5453 33.9603C5.52775 33.9375 5.50695 33.9141 5.48484 33.8868C5.46339 33.8556 5.43934 33.8283 5.41203 33.7919C5.39188 33.7737 5.37498 33.7458 5.35353 33.723C5.32817 33.6847 5.30022 33.6522 5.27291 33.6152C5.25211 33.5879 5.23521 33.5697 5.22156 33.5456C5.1884 33.5014 5.1533 33.4579 5.11949 33.4143C5.10909 33.3968 5.09154 33.3766 5.08244 33.3604C5.03498 33.2947 4.98427 33.2284 4.93877 33.1595L4.93291 33.1518C4.88741 33.0855 4.83995 33.0198 4.7964 32.9529C4.78534 32.9334 4.77104 32.9106 4.75674 32.8898C4.72553 32.8391 4.68913 32.7878 4.65467 32.7338C4.63647 32.7085 4.62347 32.6832 4.60332 32.6578C4.57276 32.6065 4.54156 32.561 4.50775 32.5103C4.4902 32.4791 4.47395 32.4518 4.4577 32.4238C4.43039 32.3725 4.39594 32.3205 4.36278 32.2698C4.34848 32.2386 4.32833 32.2087 4.31208 32.1762C4.28087 32.1249 4.25357 32.0716 4.21911 32.0202C4.20156 31.9929 4.18206 31.9565 4.1645 31.9253C4.1333 31.8655 4.10274 31.8142 4.07154 31.7596C4.05724 31.729 4.03839 31.6946 4.02213 31.6595C3.87846 31.3956 3.73934 31.1227 3.59632 30.8276L3.59632 30.8224L2.87862 30.7022C3.02229 31.0713 3.16466 31.4067 3.31808 31.7245L2.14791 30.0776L3.31808 30.192C2.31759 27.8932 1.58363 24.8846 1.58363 20.6003L2.53602 21.2027C3.37594 16.4205 7.31941 14.3187 7.31941 14.3187L7.31291 14.3486C9.48487 12.9272 12.1295 11.9328 15.0438 11.5389C15.4482 11.4876 15.7758 11.4577 15.8499 11.4505C15.8525 11.4505 15.8525 11.4505 15.8525 11.4525C15.9052 11.446 15.952 11.4369 16.0027 11.4369C17.5811 11.2991 19.1141 11.3556 20.58 11.5701C20.5761 11.5142 20.5729 11.4577 20.5729 11.4011C20.5729 10.4542 21.0995 9.67489 21.7704 9.61055C20.3928 7.26754 19.2766 4.15567 19.2733 4.14137C19.22 3.99838 19.1102 3.73321 18.999 3.65392C18.6597 3.57723 18.6324 3.56033 18.2566 3.44334L18.2624 3.44789C18.1357 3.57138 17.0474 3.77481 15.939 3.35885C15.9416 3.35365 15.9416 3.35365 15.9481 3.3478C15.3208 3.07288 14.7103 2.57048 14.2871 1.73792C14.7376 2.10188 15.5782 2.69332 16.2628 2.61143C15.4521 2.14998 14.0518 1.26867 13.8919 0C13.8919 0 18.7533 3.4102 21.1502 2.78106C21.1502 2.78106 20.8011 2.3846 21.6267 0.911855L22.0037 2.28191C22.4354 3.61102 20.7705 3.80665 20.0704 3.83525C20.0736 3.845 20.0736 3.84955 20.0736 3.8515C20.0736 3.8515 20.151 4.06468 20.2868 4.41694C20.6997 5.48153 21.6605 7.83493 22.7123 9.51501C22.7312 9.55011 22.7448 9.5878 22.7559 9.62225L22.5589 9.89327C22.5609 9.89327 22.7013 10.0467 22.7767 10.1597C22.9158 10.3801 23.1096 10.7538 23.1128 11.2484C23.1128 11.6364 23.0179 12.1258 22.7416 12.7341L23.3644 13.0227C23.3982 12.9434 23.4313 12.87 23.4645 12.7991C23.4736 12.7718 23.4827 12.7478 23.4905 12.727C23.51 12.6763 23.5302 12.6249 23.5471 12.5742C23.5575 12.5515 23.5666 12.5229 23.5757 12.4976C23.5926 12.4423 23.6082 12.391 23.6264 12.3403C23.6303 12.3247 23.64 12.3039 23.6439 12.2857L27.2019 13.36L26.4133 14.0093L26.4081 14.0093L26.373 14.0444L26.3548 14.058L12.8979 26.3106C12.9018 26.3106 12.9057 26.3041 12.9057 26.3041L12.9018 26.3106C16.6431 24.4914 21.0071 22.3765 28.4098 18.9475C35.7025 15.5867 40.3201 13.6291 42.7021 12.6535C42.7222 12.6405 42.7444 12.6321 42.7606 12.6249L42.7645 12.6249C43.1104 12.4826 43.4074 12.3637 43.6577 12.2616C44.1674 12.0621 44.6452 11.8775 44.6712 11.8658C44.7115 11.8886 44.7596 11.9009 44.8006 11.9224L17.5942 30.5774L34.4075 42.1904ZM15.5782 36.4404L11.5223 33.3558L14.4334 39.757L14.4334 39.7622C14.8963 38.7808 15.285 37.659 15.5821 36.4404L15.5782 36.4404ZM30.061 14.3713L30.1624 13.8845L30.1598 13.8845L34.9003 11.0891L36.0997 10.3924L35.4438 12.0796C39.3548 10.9267 42.5396 10.8623 44.6576 11.86C44.6576 11.86 44.655 11.86 44.655 11.8587C40.9683 10.7694 31.8267 13.8488 30.061 14.3713Z" fill="rgb(220,13,21)" fill-rule="nonzero" transform="matrix(1,0,0,-1,0.000793457,74)" />
				</g>
				<g id="g72">
					<path id="path74" d="M4.53636 29.5791C4.53636 28.9246 6.01467 29.011 6.01467 29.011C6.01467 29.6129 4.89326 30.3369 4.89326 30.3369C4.89326 30.3369 3.87911 29.9079 2.67969 30.3369C2.19927 30.5104 1.69675 30.4539 1.26898 30.3232C0.700802 29.9443 0 29.2658 0 29.2658C2.64588 30.2498 4.53636 29.5791 4.53636 29.5791ZM14.434 30.4175L11.5229 24.017L15.5789 27.1015C15.2857 28.3202 14.8911 29.4367 14.434 30.4175ZM44.6784 2.52629C44.6784 2.52629 35.5667 5.94428 12.8985 16.9717L26.4081 4.66976L26.414 4.66976C27.6238 5.17216 28.4754 5.52897 30.1605 4.54498L30.061 5.03243C31.8234 4.50988 40.9995 1.4149 44.6784 2.52629ZM22.7416 3.39525C23.0185 2.78691 23.1135 2.29686 23.1135 1.9095C23.1096 1.4149 22.9165 1.04054 22.7773 0.820215C22.7019 0.707127 22.5615 0.554393 22.5596 0.554393L22.9639 0C23.0075 0.0279471 23.7973 0.624585 23.7973 1.9095C23.7973 2.4093 23.6777 3.00074 23.3624 3.68382L22.7416 3.39525ZM14.6089 1.91925C15.2519 1.81721 15.8376 1.76327 15.8376 1.76327L15.8675 2.10318C15.8675 2.10318 15.2941 2.15388 14.6648 2.25592L14.6089 1.91925ZM14.1474 30.9992C13.7839 31.6849 13.3822 32.2893 12.957 32.791L9.336 30.14C7.87394 29.3678 7.10293 30.4246 7.10293 30.4246C7.37077 30.1952 7.72767 30.0535 8.12293 30.0535C8.98235 30.0535 9.67275 30.7308 9.67535 31.5555C9.67535 31.7641 9.6331 31.9637 9.55443 32.1392C9.42052 32.4427 9.18323 32.6922 8.89524 32.8515L8.90174 32.8534C8.90174 32.8534 8.58189 33.0387 8.6495 33.3402C8.71776 33.6463 9.28465 34.2371 9.28465 34.2371L9.28139 34.2345L11.0607 36.0426L11.0874 36.0751L12.7022 37.7162L13.4843 38.5111C13.6312 38.6703 13.7183 38.775 13.7183 38.775L11.6139 37.8781C11.6139 37.8781 11.5736 37.9008 11.7778 38.2771C11.9812 38.6502 12.474 39.3378 12.474 39.3378L8.56759 36.5496C8.79318 37.6441 11.2336 40.921 11.2336 40.921L8.65535 38.5618C8.48243 39.3839 9.99 42.5082 9.99 42.5082C9.04086 41.5677 8.35761 40.5356 8.35761 40.5356C8.35761 41.4371 9.04086 42.7266 9.04086 42.7266C5.91001 39.5952 5.04083 35.6767 4.8224 34.2189C4.36863 33.9356 4.64752 34.2807 4.43104 33.7601C2.32864 33.1667 1.13571 31.2916 0.864626 30.8256C2.56982 32.9295 4.71643 32.7195 4.71643 32.7195C4.71643 32.7195 7.27975 27.9841 6.16484 28.3663C5.04083 28.7556 5.57911 26.8721 5.57911 26.8721L3.4819 27.7762C3.82775 27.0918 4.5084 25.4799 4.1177 23.8031C3.68603 23.1473 3.25762 22.3479 2.87862 21.3626L3.59632 21.4829C3.73674 21.7831 3.87586 22.0568 4.01563 22.3187C4.03579 22.3525 4.05724 22.385 4.07219 22.4181C4.10014 22.4734 4.13135 22.5267 4.16515 22.5819C4.18206 22.6144 4.20221 22.6501 4.21976 22.6813C4.24967 22.732 4.27567 22.7834 4.30882 22.8341C4.32898 22.8698 4.34913 22.8997 4.36343 22.9309C4.39594 22.9816 4.42324 23.0336 4.45835 23.081C4.4746 23.1129 4.49085 23.1402 4.5084 23.1655C4.53896 23.2169 4.57276 23.2676 4.60397 23.317C4.61827 23.3443 4.63322 23.3696 4.65467 23.395C4.68393 23.4463 4.72033 23.497 4.75674 23.5477C4.77169 23.5717 4.78079 23.5945 4.79705 23.6133C4.8406 23.6809 4.88806 23.7466 4.93357 23.8103C4.93357 23.8129 4.93877 23.8174 4.93877 23.82C4.98427 23.8896 5.03173 23.952 5.07724 24.017C5.09219 24.0325 5.10649 24.054 5.12014 24.0722C5.15395 24.119 5.18515 24.1599 5.21831 24.2061C5.23586 24.2308 5.25211 24.249 5.27291 24.2717C5.29762 24.3081 5.32427 24.3458 5.35158 24.3835C5.37498 24.4063 5.39253 24.429 5.40878 24.4531C5.43414 24.4856 5.46014 24.5167 5.48549 24.5479C5.50435 24.5707 5.5284 24.5934 5.5453 24.6188C5.57261 24.65 5.59276 24.6766 5.61616 24.7052C5.63827 24.728 5.65517 24.7514 5.67467 24.7741C5.69873 24.8027 5.72148 24.83 5.74618 24.8534C5.76243 24.8762 5.78324 24.8976 5.80079 24.9191C5.82354 24.9483 5.8476 24.9704 5.8645 24.9957C5.8853 25.0139 5.90221 25.0393 5.92236 25.0575C5.94446 25.0802 5.96331 25.101 5.98737 25.1251C6.00427 25.1485 6.02117 25.1615 6.03807 25.1823C6.06278 25.205 6.08098 25.2252 6.10308 25.2505C6.11674 25.2635 6.13689 25.2843 6.15379 25.3051C6.17004 25.3246 6.1915 25.3454 6.21555 25.3636C6.22855 25.3779 6.2422 25.3935 6.25976 25.4091C6.27926 25.4306 6.30136 25.4546 6.32022 25.4728C6.33777 25.4838 6.34687 25.5001 6.36117 25.5092C6.39498 25.5436 6.42228 25.5722 6.45284 25.6021C6.47104 25.6112 6.48014 25.6229 6.49379 25.6346C6.50744 25.6528 6.5276 25.6691 6.5445 25.684C6.55425 25.697 6.57245 25.7094 6.5822 25.7204C6.59911 25.7347 6.61666 25.7477 6.62641 25.764C6.64396 25.7711 6.65046 25.7835 6.66737 25.7893C6.67777 25.8062 6.69467 25.8153 6.70962 25.827C6.71872 25.8368 6.72848 25.8498 6.73888 25.8569C6.75253 25.866 6.76228 25.8777 6.77658 25.8881C6.78568 25.8914 6.79673 25.9037 6.80584 25.9174C6.81689 25.9187 6.82794 25.9317 6.83704 25.9388C6.84809 25.9447 6.85394 25.9544 6.86434 25.9641C6.87865 25.968 6.8845 25.9752 6.89165 25.9823C6.9014 25.9901 6.9079 25.9934 6.91375 26.0025C6.9222 26.0057 6.9326 26.0155 6.93911 26.0187C6.94951 26.0207 6.95276 26.0311 6.95601 26.0337C6.96251 26.0382 6.97356 26.0428 6.98071 26.0467C6.98071 26.0538 6.98656 26.0564 6.98981 26.0564C6.99371 26.0662 7.00086 26.0662 7.00737 26.0701C7.00737 26.0701 7.01517 26.0746 7.01517 26.0772C7.02102 26.0818 7.02427 26.0818 7.03207 26.0844C7.03207 26.0889 7.03467 26.0889 7.03467 26.0889L6.98071 25.8368L6.33062 22.7834C8.79577 25.8368 12.4357 29.3795 14.1474 30.9992ZM6.9053 31.317L7.18744 31.4099C7.19394 31.3716 7.2115 31.3352 7.22515 31.3053C7.37792 30.9329 7.73027 30.7054 8.10538 30.7054C8.22499 30.7054 8.34071 30.7236 8.45187 30.773C8.6391 30.849 8.78862 30.9842 8.88809 31.1422L8.59555 31.317C8.6326 31.3976 8.6495 31.4886 8.6495 31.5828C8.6495 31.692 8.6222 31.794 8.58189 31.8889L9.22289 32.1073C9.45497 31.4255 9.12862 30.6963 8.48633 30.476C7.84794 30.2576 7.13933 30.6287 6.9053 31.317Z" fill="rgb(0,0,0)" fill-rule="nonzero" transform="matrix(1,0,0,-1,0,64.6606)" />
				</g>
				<g id="g76">
					<path id="path78" d="M32.7667 10.2026C32.3344 10.3183 31.6882 10.382 30.8476 10.382L29.0222 10.382L29.0222 0.0682426L29.2159 0.203429L30.7169 1.26152L30.7703 1.30051L30.7703 4.21871L31.3436 4.21871C32.4026 4.21871 33.2621 4.50143 33.8933 5.04997C34.5298 5.60826 34.8503 6.36609 34.8503 7.30849C34.8503 8.19109 34.5493 8.93007 33.957 9.51241C33.6164 9.84777 33.2185 10.0804 32.7667 10.2026ZM31.2468 5.7051L30.7657 5.7051L30.7657 8.86702L31.3053 8.86702C32.6841 8.86702 33.3784 8.35618 33.3784 7.33708C33.3784 6.2491 32.6646 5.7051 31.2468 5.7051ZM42.4758 4.46633C43.0791 4.63662 43.5791 4.96288 43.962 5.44318C44.3845 5.96768 44.5945 6.60916 44.5945 7.33708C44.5945 8.26974 44.2539 9.03731 43.5836 9.60925C42.9816 10.1188 41.9948 10.382 40.6543 10.382L38.7749 10.382L38.7749 0.0682426L38.964 0.203429L40.4703 1.26152L40.5236 1.30051L40.5236 4.25316L40.6062 4.25316L43.4139 0.232026L43.4815 0.130636L43.5836 0.203429L44.7882 1.07304L44.8903 1.14583L44.8175 1.24722L42.4758 4.46633ZM40.5236 5.7051L40.5236 5.80779L40.5236 8.72014L40.5236 8.86702L41.0625 8.86702C42.4421 8.86702 43.137 8.35618 43.137 7.33708C43.137 6.2491 42.4232 5.7051 41.004 5.7051L40.5236 5.7051ZM16.2673 10.0759C15.6744 10.2793 14.8631 10.382 13.8574 10.382L11.6484 10.382L11.6484 0.184581L13.834 0.184581C14.8482 0.184581 15.6445 0.276221 16.2088 0.466001C16.8062 0.655132 17.3926 0.995046 17.9419 1.47535C19.0302 2.44244 19.5886 3.71891 19.5886 5.2833C19.5886 6.83209 19.0543 8.1092 18.0057 9.06525C17.4856 9.5371 16.9031 9.87637 16.2673 10.0759ZM16.7575 2.73296C16.4129 2.4236 16.0196 2.18962 15.586 2.04924C15.1602 1.9082 14.6063 1.83996 13.9497 1.83996L13.3965 1.83996L13.3965 8.72014L13.9497 8.72014C15.1888 8.72014 16.1405 8.42442 16.7666 7.84598C17.4713 7.19085 17.821 6.33229 17.821 5.2833C17.821 4.23886 17.4667 3.38485 16.7575 2.73296ZM5.28007 8.91057C5.92496 8.91057 6.56205 8.72599 7.18354 8.36138L7.29146 8.29898L7.34931 8.40557L8.07807 9.66254L8.14113 9.76913L8.03451 9.83282C7.18354 10.3229 6.28966 10.5705 5.38603 10.5705C3.71594 10.5705 2.33709 9.94526 1.28784 8.70649C0.432962 7.6913 0 6.52597 0 5.2339C0 3.79755 0.520075 2.54383 1.53552 1.52474C2.56462 0.514096 3.818 0 5.27031 0C6.23115 0 7.16014 0.252823 8.03451 0.747422L8.09627 0.786418L8.09627 0.888457L8.08262 0.916404L7.34931 2.18507L7.28561 2.29556L7.17444 2.22277C6.97096 2.09213 6.77008 1.98554 6.5861 1.9082C6.23115 1.74247 5.79494 1.66058 5.28396 1.66058C4.30427 1.66058 3.4637 2.01024 2.78305 2.70047C2.1076 3.38875 1.76305 4.24861 1.76305 5.25405C1.76305 6.27314 2.1076 7.14795 2.78305 7.84598C3.45915 8.55636 4.29842 8.91057 5.28007 8.91057ZM120.23 8.72014L120.264 8.75523L121.648 10.1682L121.858 10.382L115.946 10.382L115.946 0.184581L120.264 0.184581L120.299 0.218377L121.653 1.63133L121.852 1.83996L117.694 1.83996L117.694 5.00643L118.976 5.00643L119.011 5.04477L120.415 6.45253L120.623 6.66635L117.694 6.66635L117.694 8.72014L120.23 8.72014ZM90.315 8.72014L92.602 8.72014L92.602 0.0682426L92.797 0.203429L94.2975 1.26152L94.3514 1.30051L94.3514 8.72014L96.6345 8.72014L96.6345 10.382L90.315 10.382L90.315 8.72014ZM53.337 10.5666C51.8743 10.5666 50.602 10.046 49.5632 9.02171C48.5139 7.99741 47.9841 6.75344 47.9841 5.32684C47.9841 3.70526 48.5666 2.36965 49.714 1.36421C50.7528 0.460152 51.9471 0 53.259 0C54.736 0 56.0186 0.519295 57.062 1.53839C58.1067 2.55358 58.6359 3.80665 58.6359 5.2677C58.6359 6.71575 58.1113 7.97857 57.0718 9.00806C56.0381 10.0421 54.7841 10.5666 53.337 10.5666ZM55.8333 2.70372C55.1384 2.01024 54.279 1.66058 53.2733 1.66058C52.3553 1.66058 51.5245 2.00569 50.8211 2.69007C50.1067 3.36925 49.7472 4.24861 49.7472 5.31124C49.7472 6.31669 50.0969 7.1772 50.7815 7.86158C51.4667 8.55636 52.3215 8.91057 53.3175 8.91057C54.318 8.91057 55.1676 8.55636 55.8437 7.86158C56.5283 7.17135 56.8728 6.30304 56.8728 5.2833C56.8728 4.27785 56.5231 3.40824 55.8333 2.70372ZM132.291 9.06525C131.771 9.5371 131.184 9.87637 130.547 10.0759C129.954 10.2793 129.148 10.382 128.138 10.382L125.928 10.382L125.928 0.184581L128.113 0.184581C129.129 0.184581 129.93 0.276221 130.493 0.466001C131.091 0.655132 131.673 0.995046 132.223 1.47535C133.315 2.44244 133.869 3.71891 133.869 5.2833C133.869 6.83209 133.34 8.1092 132.291 9.06525ZM131.042 2.73296C130.692 2.4236 130.298 2.18962 129.872 2.04924C129.44 1.9082 128.89 1.83996 128.23 1.83996L127.677 1.83996L127.677 8.72014L128.23 8.72014C129.473 8.72014 130.421 8.42442 131.052 7.84598C131.752 7.19085 132.105 6.33229 132.105 5.2833C132.105 4.23886 131.752 3.38485 131.042 2.73296ZM109.224 4.46633C109.826 4.63662 110.326 4.96288 110.71 5.44318C111.133 5.96768 111.342 6.60916 111.342 7.33708C111.342 8.26974 111.002 9.03731 110.331 9.60925C109.724 10.1188 108.743 10.382 107.402 10.382L105.517 10.382L105.517 0.0682426L105.712 0.203429L107.218 1.26152L107.271 1.30051L107.271 4.25316L107.353 4.25316L110.156 0.232026L110.23 0.130636L110.331 0.203429L111.535 1.07304L111.632 1.14583L111.565 1.24722L109.224 4.46633ZM107.271 5.7051L107.271 8.86702L107.805 8.86702C109.19 8.86702 109.88 8.35618 109.88 7.33708C109.88 6.2491 109.17 5.7051 107.747 5.7051L107.271 5.7051ZM85.5348 10.343L81.8735 6.58966L81.8735 10.4938L81.6785 10.3528L80.1781 9.29858L80.1241 9.26023L80.1241 0.0682426L80.3237 0.203429L81.8241 1.26152L81.8735 1.30051L81.8735 4.37469L82.0523 4.55017L85.5491 0.228126L85.6174 0.141035L85.7149 0.203429L87.0021 1.07304L87.1139 1.15038L87.0262 1.25827L83.3018 5.74475L87.7205 10.1682L87.9298 10.382L85.5745 10.382L85.5348 10.343ZM64.0226 9.29403L63.9686 9.25503L63.9686 3.8216C63.9686 2.99944 63.8815 2.4236 63.7118 2.10318C63.561 1.80161 63.2938 1.66058 62.896 1.66058C62.6047 1.66058 62.2888 1.77171 61.9488 1.99984L61.837 2.07263L61.7739 1.96214L61.0308 0.679829L60.9723 0.57324L61.0744 0.509547C61.6374 0.174182 62.2491 0 62.896 0C63.7606 0 64.464 0.315867 64.9886 0.926803C65.2565 1.23682 65.4463 1.62158 65.5626 2.06808C65.6693 2.45609 65.7271 3.02998 65.7271 3.8164L65.7271 10.4938L65.5282 10.3528L64.0226 9.29403ZM74.7719 8.72014L74.8102 8.75523L76.1943 10.1682L76.3984 10.382L70.493 10.382L70.493 0.184581L74.8057 0.184581L74.8447 0.218377L76.1943 1.63133L76.3945 1.83996L72.2417 1.83996L72.2417 5.00643L73.5185 5.00643L73.5523 5.04477L74.9559 6.45253L75.1652 6.66635L72.2417 6.66635L72.2417 8.72014L74.7719 8.72014Z" fill="rgb(0,0,0)" fill-rule="nonzero" transform="matrix(1,0,0,-1,33.4481,48.6743)" />
				</g>
				<g id="g80">
					<path id="path82" d="M1.78321 0C0.799617 0 0 0.800067 0 1.78276C0 2.77521 0.799617 3.56553 1.78321 3.56553C2.77591 3.56553 3.56642 2.77521 3.56642 1.78276C3.56642 0.800067 2.77591 0 1.78321 0ZM1.78321 3.29776C0.941988 3.29776 0.268489 2.63223 0.268489 1.78276C0.268489 0.950851 0.941988 0.269722 1.78321 0.269722C2.62443 0.269722 3.29663 0.950851 3.29663 1.78276C3.29663 2.63223 2.62443 3.29776 1.78321 3.29776ZM2.27143 0.757821L1.7416 1.56439L1.38795 1.56439L1.38795 0.757821L1.10191 0.757821L1.10191 2.80056L1.93468 2.80056C2.27988 2.80056 2.59908 2.55748 2.59908 2.17792C2.59908 1.72427 2.19472 1.57349 2.07835 1.57349L2.62443 0.757821L2.27143 0.757821ZM1.93468 2.54773L1.38795 2.54773L1.38795 1.82566L1.93468 1.82566C2.11086 1.82566 2.30394 1.96735 2.30394 2.17792C2.30394 2.4054 2.11086 2.54773 1.93468 2.54773Z" fill="rgb(0,0,0)" fill-rule="nonzero" transform="matrix(1,0,0,-1,168.484,41.6694)" />
				</g>
			</g>
		</g>
	</g>
</svg>
