<svg viewBox="0 0 32 32" xmlns="http://www.w3.org/2000/svg" width="32.000000" height="32.000000" fill="none">
	<rect id="auto_awesome_motion" width="32.000000" height="32.000000" x="0.000000" y="0.000000" />
	<path id="Vector" d="M0 0L32 0L32 32L0 32L0 0Z" fill-rule="nonzero" />
	<path id="Vector" d="M18.6667 2.6665L5.33342 2.6665C3.85341 2.6665 2.66675 3.8665 2.66675 5.33317L2.66675 18.6665L5.33342 18.6665L5.33342 5.33317L18.6667 5.33317L18.6667 2.6665ZM24.0001 7.99984L10.6667 7.99984C9.18675 7.99984 8.00008 9.19984 8.00008 10.6665L8.00008 23.9998L10.6667 23.9998L10.6667 10.6665L24.0001 10.6665L24.0001 7.99984ZM26.6667 13.3332L16.0001 13.3332C14.5201 13.3332 13.3334 14.5332 13.3334 15.9998L13.3334 26.6665C13.3334 28.1332 14.5201 29.3332 16.0001 29.3332L26.6667 29.3332C28.1334 29.3332 29.3334 28.1332 29.3334 26.6665L29.3334 15.9998C29.3334 14.5332 28.1334 13.3332 26.6667 13.3332Z" fill="rgb(0,0,0)" fill-rule="nonzero" />
</svg>
