<svg viewBox="0 0 132 132" xmlns="http://www.w3.org/2000/svg" xmlns:xlink="http://www.w3.org/1999/xlink" width="132.000000" height="132.000000" fill="none" customFrame="#000000">
	<path id="Vector" d="M117.36 48.4629L119.4 25.2686L97.74 20.1143L86.4 0L66 9.17714L45.6 0L34.26 20.0514L12.6 25.1429L14.64 48.4L0 66L14.64 83.5371L12.6 106.794L34.26 111.949L45.6 132L66 122.76L86.4 131.937L97.74 111.886L119.4 106.731L117.36 83.5371L132 66L117.36 48.4629ZM126.789 66L113.231 49.7581L113.375 48.1124L115.113 28.36L95.1139 23.6011L84.7096 5.14655L66 13.5633L47.2859 5.14453L36.8798 23.5446L16.8874 28.2441L18.7686 49.6915L5.20676 65.9954L18.769 82.2415L16.8865 103.703L36.883 108.461L47.2813 126.847L65.9944 118.371L84.7141 126.793L95.117 108.398L115.113 103.64L113.231 82.242L126.789 66Z" fill="rgb(248,242,0)" fill-rule="evenodd" />
</svg>
